# 3ds Max Wavefront OBJ Exporter v0.97b - (c)2007 guruware
# File Created: 19.03.2018 17:53:37

#
# object GeoSphere001
#

v  18.5422 29.3418 34.2459
v  27.5611 25.5817 34.2459
v  21.3292 25.5817 25.6685
v  35.6377 14.1875 34.2459
v  31.4336 16.4051 24.8798
v  23.8250 14.1875 17.9871
v  11.2457 25.5817 28.9448
v  13.6181 16.4051 19.0912
v  4.7116 14.1875 24.1974
v  11.2457 25.5817 39.5471
v  2.6076 16.4051 34.2459
v  4.7116 14.1875 44.2944
v  21.3292 25.5817 42.8234
v  13.6181 16.4051 49.4006
v  23.8250 14.1875 50.5048
v  31.4336 16.4051 43.6121
v  38.7848 1.5570 40.8232
v  38.7848 1.5570 27.6687
v  35.5146 -11.0736 46.5771
v  38.8187 -13.2911 34.2459
v  35.5146 -11.0736 21.9147
v  31.0528 1.5570 17.0265
v  18.5422 1.5570 12.9616
v  24.8080 -13.2911 14.9618
v  12.0593 -11.0736 14.2937
v  6.0316 1.5570 17.0265
v  -1.7004 1.5570 27.6687
v  2.1382 -13.2911 22.3277
v  -2.4369 -11.0736 34.2459
v  -1.7004 1.5570 40.8232
v  6.0316 1.5570 51.4653
v  2.1382 -13.2911 46.1642
v  12.0593 -11.0736 54.1982
v  18.5422 1.5570 55.5303
v  31.0528 1.5570 51.4653
v  24.8080 -13.2911 53.5300
v  18.5422 -25.9461 34.2459
v  14.4135 -22.4678 21.5391
v  29.3513 -22.4678 26.3926
v  5.1814 -22.4678 34.2459
v  14.4135 -22.4678 46.9528
v  29.3513 -22.4678 42.0992
# 42 vertices

vn 0.3706 0.8889 -0.2693
vn 0.7952 0.5637 -0.2235
vn 0.5891 0.6854 -0.4280
vn 0.4583 0.5637 -0.6872
vn -0.1416 0.8889 -0.4357
vn 0.0332 0.5637 -0.8253
vn -0.2250 0.6854 -0.6925
vn -0.5120 0.5637 -0.6482
vn -0.4581 0.8889 -0.0000
vn -0.7747 0.5637 -0.2866
vn -0.7281 0.6854 -0.0000
vn -0.7747 0.5637 0.2866
vn -0.1416 0.8889 0.4357
vn -0.5120 0.5637 0.6482
vn -0.2250 0.6854 0.6925
vn 0.0332 0.5637 0.8253
vn 0.3706 0.8889 0.2693
vn 0.4583 0.5637 0.6872
vn 0.5891 0.6854 0.4280
vn 0.7952 0.5637 0.2235
vn 0.9703 0.2418 -0.0000
vn 0.9532 -0.1206 0.2771
vn 1.0000 0.0023 -0.0000
vn 0.9532 -0.1206 -0.2771
vn 0.2998 0.2418 -0.9228
vn 0.5581 -0.1206 -0.8210
vn 0.3090 0.0023 -0.9511
vn 0.0310 -0.1206 -0.9922
vn -0.7850 0.2418 -0.5703
vn -0.6083 -0.1206 -0.7845
vn -0.8090 0.0023 -0.5878
vn -0.9341 -0.1206 -0.3361
vn -0.7850 0.2418 0.5703
vn -0.9341 -0.1206 0.3361
vn -0.8090 0.0023 0.5878
vn -0.6083 -0.1206 0.7845
vn 0.2998 0.2418 0.9228
vn 0.0310 -0.1206 0.9922
vn 0.3090 0.0023 0.9511
vn 0.5581 -0.1206 0.8210
vn 0.8076 0.0582 -0.5868
vn 0.5594 0.3763 -0.7386
vn 0.7770 0.2786 -0.5645
vn 0.8753 0.3763 -0.3038
vn -0.3085 0.0582 -0.9494
vn -0.5295 0.3763 -0.7603
vn -0.2968 0.2786 -0.9134
vn -0.0185 0.3763 -0.9263
vn -0.9983 0.0582 -0.0000
vn -0.8867 0.3763 0.2687
vn -0.9604 0.2786 -0.0000
vn -0.8867 0.3763 -0.2687
vn -0.3085 0.0582 0.9494
vn -0.0185 0.3763 0.9263
vn -0.2968 0.2786 0.9134
vn -0.5295 0.3763 0.7603
vn 0.8076 0.0582 0.5868
vn 0.8753 0.3763 0.3038
vn 0.7770 0.2786 0.5645
vn 0.5594 0.3763 0.7386
vn 0.0947 -0.9519 -0.2913
vn -0.0506 -0.5433 -0.8380
vn 0.2151 -0.7180 -0.6619
vn 0.5335 -0.5433 -0.6482
vn -0.2478 -0.9519 -0.1801
vn -0.8126 -0.5433 -0.2108
vn -0.5631 -0.7180 -0.4091
vn -0.4516 -0.5433 -0.7077
vn -0.2478 -0.9519 0.1801
vn -0.4516 -0.5433 0.7077
vn -0.5631 -0.7180 0.4091
vn -0.8126 -0.5433 0.2108
vn 0.0947 -0.9519 0.2913
vn 0.5335 -0.5433 0.6482
vn 0.2151 -0.7180 0.6619
vn -0.0506 -0.5433 0.8380
vn 0.3063 -0.9519 0.0000
vn 0.7814 -0.5433 -0.3071
vn 0.6960 -0.7180 0.0000
vn 0.7814 -0.5433 0.3071
# 80 vertex normals

vt 0.4000 0.9999 25.4137
vt 0.5000 0.6476 25.4137
vt 0.7000 0.6476 25.4137
vt 0.9000 0.6476 25.4137
vt 0.1000 0.6476 25.4137
vt 0.3000 0.6476 25.4137
vt 0.6000 0.3524 25.4137
vt 0.8000 0.3524 25.4137
vt 0.0000 0.3524 25.4137
vt 0.2000 0.3524 25.4137
vt 0.4000 0.3524 25.4137
vt 0.5000 0.0001 25.4137
vt 0.5000 0.8238 25.4137
vt 0.7000 0.8238 25.4137
vt 0.9000 0.8238 25.4137
vt 0.1000 0.8238 25.4137
vt 0.3000 0.8238 25.4137
vt 0.6000 0.6762 25.4137
vt 0.8000 0.6762 25.4137
vt 0.0000 0.6762 25.4137
vt 0.2000 0.6762 25.4137
vt 0.4000 0.6762 25.4137
vt 0.5500 0.5000 25.4137
vt 0.7500 0.5000 25.4137
vt 0.9500 0.5000 25.4137
vt 0.1500 0.5000 25.4137
vt 0.3500 0.5000 25.4137
vt 0.4500 0.5000 25.4137
vt 0.6500 0.5000 25.4137
vt 0.8500 0.5000 25.4137
vt 0.0500 0.5000 25.4137
vt 0.2500 0.5000 25.4137
vt 0.7000 0.3238 25.4137
vt 0.9000 0.3238 25.4137
vt 0.1000 0.3238 25.4137
vt 0.3000 0.3238 25.4137
vt 0.5000 0.3238 25.4137
vt 0.6000 0.1762 25.4137
vt 0.8000 0.1762 25.4137
vt 0.0000 0.1762 25.4137
vt 0.2000 0.1762 25.4137
vt 0.4000 0.1762 25.4137
vt 0.6000 0.9999 25.4137
vt 0.8000 0.9999 25.4137
vt 0.0000 0.9999 25.4137
vt -0.1000 0.8238 25.4137
vt -0.1000 0.8238 25.4137
vt -0.1000 0.6476 25.4137
vt -0.1000 0.8238 25.4137
vt 0.2000 0.9999 25.4137
vt -0.0500 0.5000 25.4137
vt -0.1000 0.3238 25.4137
vt -0.0500 0.5000 25.4137
vt -0.0500 0.5000 25.4137
vt -0.0500 0.5000 25.4137
vt -0.1000 0.6476 25.4137
vt 0.7000 0.0001 25.4137
vt -0.1000 0.0001 25.4137
vt -0.2000 0.1762 25.4137
vt -0.1000 0.3238 25.4137
vt -0.1000 0.3238 25.4137
vt -0.2000 0.1762 25.4137
vt 0.1000 0.0001 25.4137
vt 0.3000 0.0001 25.4137
# 64 texture coords

g GeoSphere001
s off
f 1/43/1 2/13/1 3/14/1 
f 2/13/2 4/2/2 5/18/2 
f 2/13/3 5/18/3 3/14/3 
f 3/14/4 5/18/4 6/3/4 
f 1/44/5 3/14/5 7/15/5 
f 3/14/6 6/3/6 8/19/6 
f 3/14/7 8/19/7 7/15/7 
f 7/15/8 8/19/8 9/4/8 
f 1/45/9 7/46/9 10/16/9 
f 7/47/10 9/48/10 11/20/10 
f 7/49/11 11/20/11 10/16/11 
f 10/16/12 11/20/12 12/5/12 
f 1/50/13 10/16/13 13/17/13 
f 10/16/14 12/5/14 14/21/14 
f 10/16/15 14/21/15 13/17/15 
f 13/17/16 14/21/16 15/6/16 
f 1/1/17 13/17/17 2/13/17 
f 13/17/18 15/6/18 16/22/18 
f 13/17/19 16/22/19 2/13/19 
f 2/13/20 16/22/20 4/2/20 
f 4/2/21 17/28/21 18/23/21 
f 17/28/22 19/11/22 20/37/22 
f 17/28/23 20/37/23 18/23/23 
f 18/23/24 20/37/24 21/7/24 
f 6/3/25 22/29/25 23/24/25 
f 22/29/26 21/7/26 24/33/26 
f 22/29/27 24/33/27 23/24/27 
f 23/24/28 24/33/28 25/8/28 
f 9/4/29 26/30/29 27/25/29 
f 26/30/30 25/8/30 28/34/30 
f 26/30/31 28/34/31 27/25/31 
f 27/51/32 28/52/32 29/9/32 
f 12/5/33 30/31/33 31/26/33 
f 30/31/34 29/9/34 32/35/34 
f 30/31/35 32/35/35 31/26/35 
f 31/26/36 32/35/36 33/10/36 
f 15/6/37 34/32/37 35/27/37 
f 34/32/38 33/10/38 36/36/38 
f 34/32/39 36/36/39 35/27/39 
f 35/27/40 36/36/40 19/11/40 
f 21/7/41 22/29/41 18/23/41 
f 22/29/42 6/3/42 5/18/42 
f 22/29/43 5/18/43 18/23/43 
f 18/23/44 5/18/44 4/2/44 
f 25/8/45 26/30/45 23/24/45 
f 26/30/46 9/4/46 8/19/46 
f 26/30/47 8/19/47 23/24/47 
f 23/24/48 8/19/48 6/3/48 
f 29/9/49 30/31/49 27/53/49 
f 30/31/50 12/5/50 11/20/50 
f 30/31/51 11/20/51 27/54/51 
f 27/55/52 11/20/52 9/56/52 
f 33/10/53 34/32/53 31/26/53 
f 34/32/54 15/6/54 14/21/54 
f 34/32/55 14/21/55 31/26/55 
f 31/26/56 14/21/56 12/5/56 
f 19/11/57 17/28/57 35/27/57 
f 17/28/58 4/2/58 16/22/58 
f 17/28/59 16/22/59 35/27/59 
f 35/27/60 16/22/60 15/6/60 
f 37/57/61 38/39/61 39/38/61 
f 38/39/62 25/8/62 24/33/62 
f 38/39/63 24/33/63 39/38/63 
f 39/38/64 24/33/64 21/7/64 
f 37/58/65 40/40/65 38/59/65 
f 40/40/66 29/9/66 28/60/66 
f 40/40/67 28/61/67 38/62/67 
f 38/39/68 28/34/68 25/8/68 
f 37/63/69 41/41/69 40/40/69 
f 41/41/70 33/10/70 32/35/70 
f 41/41/71 32/35/71 40/40/71 
f 40/40/72 32/35/72 29/9/72 
f 37/64/73 42/42/73 41/41/73 
f 42/42/74 19/11/74 36/36/74 
f 42/42/75 36/36/75 41/41/75 
f 41/41/76 36/36/76 33/10/76 
f 37/12/77 39/38/77 42/42/77 
f 39/38/78 21/7/78 20/37/78 
f 39/38/79 20/37/79 42/42/79 
f 42/42/80 20/37/80 19/11/80 
# 0 polygons - 80 triangles

